<svg xmlns="http://www.w3.org/2000/svg" height="400" viewBox="-4.8 -4.8 409.6 409.6" width="400"><linearGradient gradientUnits="userSpaceOnUse" id="gradient-139550143" x1="73.17937250821944" x2="426.5206396988118" y1="73.17937250821942" y2="426.5206396988118"><stop offset="0%" stop-color="hsl(239.12,97.37%,64.18%)" /><stop offset="10%" stop-color="hsl(241.62,90.18%,61.68%)" /><stop offset="25%" stop-color="hsl(245,80.08%,57.48%)" /><stop offset="37%" stop-color="hsl(245.33,84.18%,58.35%)" /><stop offset="50%" stop-color="hsl(245.63,88.46%,59.23%)" /><stop offset="5.01%" stop-color="hsl(244.92,82.03%,54.62%)" /><stop offset="83%" stop-color="hsl(234.22,91.87%,61.41%)" /><stop offset="100%" stop-color="hsl(224.06,98.22%,64.73%)" /></linearGradient><linearGradient gradientUnits="userSpaceOnUse" id="gradient-3357778686" x1="73.17937250821944" x2="426.5206396988118" y1="73.17937250821942" y2="426.5206396988118"><stop offset="0%" stop-color="hsl(34.12,6.24%,57.25%)" /><stop offset="50%" stop-color="hsl(4.71,3.93%,35.92%)" /><stop offset="5.01%" stop-color="hsl(329.71,16.67%,3.76%)" /><stop offset="100%" stop-color="hsl(164.71,11.11%,2.82%)" /></linearGradient><radialGradient gradientUnits="userSpaceOnUse" id="gradient-3222258280" r="249.85000610351562"><stop offset="0%" stop-color="hsl(0,0%,0%)" /><stop offset="100%" stop-color="hsl(0,0%,0%)" /></radialGradient><linearGradient gradientUnits="userSpaceOnUse" id="gradient-2461541998" x1="73.17937250821944" x2="426.5206396988118" y1="73.17937250821942" y2="426.5206396988118"><stop offset="0%" stop-color="hsl(4.41,14.96%,76.39%)" /><stop offset="50%" stop-color="hsl(335,4.81%,55.18%)" /><stop offset="5.01%" stop-color="hsl(300,16.54%,20.93%)" /><stop offset="100%" stop-color="hsl(135,11.03%,20.84%)" /></linearGradient><linearGradient gradientUnits="userSpaceOnUse" id="gradient-3261858847" x1="3.5147186257614305" x2="20.48528137423857" y1="3.5147186257614287" y2="20.485281374238568"><stop offset="0%" stop-color="hsl(0,0%,99.06%)" /><stop offset="10%" stop-color="hsl(0,0%,96.24%)" /><stop offset="25%" stop-color="hsl(0,0%,91.53%)" /><stop offset="37%" stop-color="hsl(0,0%,93.41%)" /><stop offset="50%" stop-color="hsl(0,0%,95.29%)" /><stop offset="5.01%" stop-color="hsl(0,0%,91.84%)" /><stop offset="83%" stop-color="hsl(0,0%,96.86%)" /><stop offset="100%" stop-color="hsl(0,0%,99.37%)" /></linearGradient><linearGradient gradientUnits="userSpaceOnUse" id="gradient-3261858847" x1="3.5147186257614305" x2="20.48528137423857" y1="3.5147186257614287" y2="20.485281374238568"><stop offset="0%" stop-color="hsl(0,0%,99.06%)" /><stop offset="10%" stop-color="hsl(0,0%,96.24%)" /><stop offset="25%" stop-color="hsl(0,0%,91.53%)" /><stop offset="37%" stop-color="hsl(0,0%,93.41%)" /><stop offset="50%" stop-color="hsl(0,0%,95.29%)" /><stop offset="5.01%" stop-color="hsl(0,0%,91.84%)" /><stop offset="83%" stop-color="hsl(0,0%,96.86%)" /><stop offset="100%" stop-color="hsl(0,0%,99.37%)" /></linearGradient><metadata>{"content":{"iconName":"semantic-web","shapeName":"shape-6"},"style":{"iconFillStyle":{"baseColor":"rgb(153,153,153)","gradientDef":"https://colorzilla.com/gradient-editor/#b8e1fc+0,a9d2f3+10,90bae4+25,90bcea+37,90bff0+50,6ba8e5+5.01,a2daf5+83,bdf3fd+100","gradientZoom":1,"options":{"angle":135,"type":"linear"},"strokeWidth":1},"iconScale":1.5,"iconStrokeStyle":{"baseColor":"rgb(153,153,153)","gradientDef":"https://colorzilla.com/gradient-editor/#b8e1fc+0,a9d2f3+10,90bae4+25,90bcea+37,90bff0+50,6ba8e5+5.01,a2daf5+83,bdf3fd+100","gradientZoom":1,"options":{"angle":135,"type":"linear"},"strokeWidth":0},"shapeInnerFillStyle":{"baseColor":"rgb(0,0,0)","gradientDef":"FF0000+0,FF0000+100","gradientZoom":1,"options":{"angle":0,"type":"radial"},"strokeWidth":1},"shapeInnerStrokeStyle":{"baseColor":"rgb(153,96,77)","gradientDef":"https://colorzilla.com/gradient-editor/#aebcbf+0,6e7774+50,0a0e0a+5.01,0a0809+100","gradientZoom":1,"options":{"angle":135,"type":"linear"},"strokeWidth":0.6},"shapeOuterFillStyle":{"baseColor":"rgb(31,31,153)","gradientDef":"https://colorzilla.com/gradient-editor/#b8e1fc+0,a9d2f3+10,90bae4+25,90bcea+37,90bff0+50,6ba8e5+5.01,a2daf5+83,bdf3fd+100","gradientZoom":1,"options":{"angle":135,"type":"linear"},"strokeWidth":1},"shapeOuterStrokeStyle":{"baseColor":"rgb(102,89,51)","gradientDef":"https://colorzilla.com/gradient-editor/#aebcbf+0,6e7774+50,0a0e0a+5.01,0a0809+100","gradientZoom":1,"options":{"angle":135,"type":"linear"},"strokeWidth":0.6}}}</metadata><svg height="400" id="Layer_1" style="overflow: visible;" viewBox="0 0 499.7 499.7" width="400" x="0" y="0"><g id="Badge-Studio"><g id="Shapes" transform="translate(-2 -69)"><g id="shape-6" transform="translate(2 69)"><path d="M249.9 432.6s-56.5-37.5-131.4-37.5c-8.3 0-16.9.3-25.7.8-.8 0-1.5.1-2.3.1-9.5 0-18-3.7-22.6-10-4.1-5.5-5-12.8-2.5-21.1l2.7-9-8-4.8C24.2 329.6 2.4 292 1.8 250.4v-1.3c.6-41.6 22.4-79.2 58.2-100.6l8-4.8-2.7-9c-2.4-8.3-1.6-15.6 2.5-21.1 4.7-6.2 13.1-10 22.6-10 .8 0 1.5 0 2.3.1 8.8.5 17.4.8 25.7.8 74.9 0 113.5-21.8 131.4-37.6 17.9 15.8 55.8 37.6 130.6 37.6 8.3 0 16.9-.3 25.7-.8.8 0 1.5-.1 2.3-.1 9.5 0 18 3.7 22.6 10 4.1 5.5 5 12.8 2.5 21.1l-2.7 9 8 4.8c35.9 21.4 57.6 59 58.3 100.6v1.3c-.6 41.6-22.4 79.2-58.3 100.6l-8 4.8 2.7 9c2.5 8.3 1.6 15.6-2.5 21.1-4.6 6.2-13.1 10-22.6 10-.8 0-1.5 0-2.3-.1-8.8-.5-17.4-.8-25.7-.8-74.7 0-130.5 37.6-130.5 37.6z" fill="#9fa0a4" id="Fill-1" style="fill: url(&quot;#gradient-139550143&quot;); stroke-width: 11.9928px; stroke: url(&quot;#gradient-3357778686&quot;); stroke-linecap: round; stroke-linejoin: round;" /><path d="M249.9 371.1c-24-13.1-75.4-32.6-127.2-33.6-4.3-12.7-12.9-23.8-25-31.1l-8-4.8c-18.5-11.1-29.8-30.3-30.2-51.6v-.3c.4-21.3 11.7-40.6 30.2-51.6l8.2-4.9c12.1-7.2 20.7-18.3 24.9-31 56.8-.5 98.1-12.2 127.1-26.6 29 14.5 69.8 26.1 126.6 26.6a58.27 58.27 0 0 0 24.9 31s8.1 4.9 8.2 4.9c18.5 11 29.7 30.3 30.2 51.6v.3c-.5 21.3-11.7 40.6-30.2 51.6l-8.1 4.8a57.06 57.06 0 0 0-25 31.1c-66 .6-97.3 16.1-126.6 33.6z" fill="none" stroke="#fff" stroke-miterlimit="10" stroke-width="18" style="fill: url(&quot;#gradient-3222258280&quot;); stroke-width: 11.9928px; stroke: url(&quot;#gradient-2461541998&quot;); stroke-linecap: round; stroke-linejoin: miter;" /></g></g></g></svg><svg height="168.75" id="mdi-semantic-web" style="overflow: visible;" version="1.1" viewBox="0 0 24 24" width="168.75" x="115.625" y="115.625"><path d="M 12.9 4.22 C 18.73 6.84 20 2 20 2 S 18.89 8.07 13.79 10.55 C 12.75 11.06 12.1 11.33 12.1 11.33 L 3.73 7.25 L 12.1 3.8200000000000003 C 12.1 3.8200000000000003 11.9 3.76 12.9 4.22 Z M 11.12 22 L 3.33 17.78 V 9.07 L 11.12 13.04 V 22 Z M 12.88 22 L 20.68 17.78 V 9.07 L 12.88 13.04 V 22 Z" style="fill: url(&quot;#gradient-3261858847&quot;); stroke-width: 0px; stroke: url(&quot;#gradient-3261858847&quot;); stroke-linecap: round; stroke-linejoin: round;" /><path d="M 12.9 4.22 C 18.73 6.84 20 2 20 2 S 18.89 8.07 13.79 10.55 C 12.75 11.06 12.1 11.33 12.1 11.33 L 3.73 7.25 L 12.1 3.8200000000000003 C 12.1 3.8200000000000003 11.9 3.76 12.9 4.22 Z M 11.12 22 L 3.33 17.78 V 9.07 L 11.12 13.04 V 22 Z M 12.88 22 L 20.68 17.78 V 9.07 L 12.88 13.04 V 22 Z" style="fill: url(&quot;#gradient-3261858847&quot;);" /></svg></svg>