<svg xmlns="http://www.w3.org/2000/svg" height="400" viewBox="-4.8 -4.8 409.6 409.6" width="400"><linearGradient gradientUnits="userSpaceOnUse" id="gradient-408777984" x1="73.07685809395642" x2="425.9231419060436" y1="73.17937250821942" y2="426.5206396988118"><stop offset="0%" stop-color="hsl(29.12,97.37%,64.18%)" /><stop offset="10%" stop-color="hsl(31.62,90.18%,61.68%)" /><stop offset="25%" stop-color="hsl(35,80.08%,57.48%)" /><stop offset="37%" stop-color="hsl(35.33,84.18%,58.35%)" /><stop offset="50%" stop-color="hsl(35.63,88.46%,59.23%)" /><stop offset="5.01%" stop-color="hsl(34.92,82.03%,54.62%)" /><stop offset="83%" stop-color="hsl(24.22,91.87%,61.41%)" /><stop offset="100%" stop-color="hsl(14.06,98.22%,64.73%)" /></linearGradient><linearGradient gradientUnits="userSpaceOnUse" id="gradient-3357778686" x1="73.07685809395642" x2="425.9231419060436" y1="73.17937250821942" y2="426.5206396988118"><stop offset="0%" stop-color="hsl(34.12,6.24%,57.25%)" /><stop offset="50%" stop-color="hsl(4.71,3.93%,35.92%)" /><stop offset="5.01%" stop-color="hsl(329.71,16.67%,3.76%)" /><stop offset="100%" stop-color="hsl(164.71,11.11%,2.82%)" /></linearGradient><radialGradient gradientUnits="userSpaceOnUse" id="gradient-3379911865" r="249.5"><stop offset="0%" stop-color="hsla(240,96.15%,20.39%,0)" /><stop offset="100%" stop-color="hsla(240,96.15%,20.39%,0)" /></radialGradient><linearGradient gradientUnits="userSpaceOnUse" id="gradient-2461541998" x1="73.07685809395642" x2="425.9231419060436" y1="73.17937250821942" y2="426.5206396988118"><stop offset="0%" stop-color="hsl(4.41,14.96%,76.39%)" /><stop offset="50%" stop-color="hsl(335,4.81%,55.18%)" /><stop offset="5.01%" stop-color="hsl(300,16.54%,20.93%)" /><stop offset="100%" stop-color="hsl(135,11.03%,20.84%)" /></linearGradient><linearGradient gradientUnits="userSpaceOnUse" id="gradient-3407515790" x1="3.5147186257614305" x2="20.48528137423857" y1="3.5147186257614287" y2="20.485281374238568"><stop offset="0%" stop-color="hsl(49.41,16.67%,51.9%)" /><stop offset="50%" stop-color="hsl(20,14.74%,32.54%)" /><stop offset="5.01%" stop-color="hsl(345,27.05%,3.46%)" /><stop offset="100%" stop-color="hsl(180,21.72%,2.58%)" /></linearGradient><linearGradient gradientUnits="userSpaceOnUse" id="gradient-3313264094" x1="3.5147186257614305" x2="20.48528137423857" y1="3.5147186257614287" y2="20.485281374238568"><stop offset="0%" stop-color="hsl(0,0%,98.83%)" /><stop offset="10%" stop-color="hsl(0,0%,95.31%)" /><stop offset="25%" stop-color="hsl(0,0%,89.45%)" /><stop offset="37%" stop-color="hsl(0,0%,91.8%)" /><stop offset="50%" stop-color="hsl(0,0%,94.14%)" /><stop offset="5.01%" stop-color="hsl(0,0%,89.84%)" /><stop offset="83%" stop-color="hsl(0,0%,96.09%)" /><stop offset="100%" stop-color="hsl(0,0%,99.22%)" /></linearGradient><metadata>{"content":{"iconName":"router-wireless","shapeName":"shape-13"},"style":{"iconFillStyle":{"baseColor":"rgb(102,102,41)","gradientDef":"https://colorzilla.com/gradient-editor/#aebcbf+0,6e7774+50,0a0e0a+5.01,0a0809+100","gradientZoom":0.8,"options":{"angle":135,"type":"linear"},"strokeWidth":1},"iconScale":1.55,"iconStrokeStyle":{"baseColor":"rgb(128,128,128)","gradientDef":"https://colorzilla.com/gradient-editor/#b8e1fc+0,a9d2f3+10,90bae4+25,90bcea+37,90bff0+50,6ba8e5+5.01,a2daf5+83,bdf3fd+100","gradientZoom":1,"options":{"angle":135,"type":"linear"},"strokeWidth":1.2},"shapeInnerFillStyle":{"baseColor":"rgb(26,26,51)","gradientDef":"FF0000+0,FF0000+100&amp;0+0,0+100","gradientZoom":1,"options":{"angle":0,"type":"radial"},"strokeWidth":1},"shapeInnerStrokeStyle":{"baseColor":"rgb(153,96,77)","gradientDef":"https://colorzilla.com/gradient-editor/#aebcbf+0,6e7774+50,0a0e0a+5.01,0a0809+100","gradientZoom":1,"options":{"angle":135,"type":"linear"},"strokeWidth":0},"shapeOuterFillStyle":{"baseColor":"rgb(153,92,31)","gradientDef":"https://colorzilla.com/gradient-editor/#b8e1fc+0,a9d2f3+10,90bae4+25,90bcea+37,90bff0+50,6ba8e5+5.01,a2daf5+83,bdf3fd+100","gradientZoom":1,"options":{"angle":135,"type":"linear"},"strokeWidth":1},"shapeOuterStrokeStyle":{"baseColor":"rgb(102,89,51)","gradientDef":"https://colorzilla.com/gradient-editor/#aebcbf+0,6e7774+50,0a0e0a+5.01,0a0809+100","gradientZoom":1,"options":{"angle":135,"type":"linear"},"strokeWidth":0.6}}}</metadata><svg height="400" style="overflow: visible;" viewBox="0 0 499 499.7" width="400" x="0" y="0"><path d="M455.6 188.9c-25.3-9.3-23.1-48.1-49.7-51.4l-.2-.4s-53.2-8.2-54.9-51.1c0-1.2-.2-2.3-.2-3.5h-7.3c-63.8 0-91.7-30.1-94-32.7-2.3 2.6-30.3 32.7-94 32.7H148c0 1.2-.2 2.3-.2 3.5-1.9 42.9-55 51.1-55 51.1l-.1.4c-26.6 3.3-47.3 24.6-49.7 51.4C18.1 198 .3 221.6 0 249.6c.3 28 18.1 51.6 43 60.7 2.4 26.8 23.1 48.1 49.7 51.4l.1.4s53.2 8.2 55 51.1c0 1.2.2 2.3.2 3.5h7.3c63.7 0 91.6 30 94 32.7 2.3-2.6 30.2-32.7 94-32.7h7.3c0-1.3.2-2.3.2-3.5 1.7-42.9 54.9-51.1 54.9-51.1l.2-.4c26.5-3.3 47.3-24.6 49.7-51.4 24.9-9.1 42.7-32.7 42.9-60.7-.2-28-18-51.5-42.9-60.7z" fill="#9fa0a4" style="fill: url(&quot;#gradient-408777984&quot;); stroke-width: 11.976px; stroke: url(&quot;#gradient-3357778686&quot;); stroke-linecap: round; stroke-linejoin: round;" /><path d="M249.7 379.6c-20.2-9.8-41.3-15-58.9-17.6-10-16.5-24.7-30.6-43.4-40.9-13.9-7.6-27.4-11.8-36.2-13.9-3.5-1.2-7.1-2-10.8-2.5-2.2-22-16.7-40.8-37.5-48.4-2.2-.8-4.9-3-5.2-6.6.4-4.6 4.4-6.3 5.2-6.6 20.7-7.6 35.3-26.4 37.5-48.4 3.6-.5 7.2-1.3 10.6-2.4 8.8-2.1 22.5-6.3 36.4-14 18.6-10.2 33.3-24.2 43.3-40.6 21.2-3.1 40.8-9.2 58.8-18 15.3 7.6 34.7 14.5 58.6 18 16.6 27.4 45.1 45.3 73.9 53.3 7.8 14.8 22.1 40.5 53.9 52.2.8.3 4.8 2 5.2 6.6-.3 3.6-2.9 5.8-5.1 6.6-20.8 7.6-35.3 26.4-37.5 48.4-3.2.4-6.3 1.1-9.3 2-31.2 6.8-63.1 25.4-81.1 55.1-23.9 3.3-43.2 10.1-58.4 17.7z" fill="none" stroke="#fff" stroke-miterlimit="10" stroke-width="18" style="fill: url(&quot;#gradient-3379911865&quot;); stroke-width: 0px; stroke: url(&quot;#gradient-2461541998&quot;); stroke-linecap: round; stroke-linejoin: miter;" /></svg><svg height="197.625" id="mdi-router-wireless" style="overflow: visible;" version="1.1" viewBox="0 0 24 24" width="197.625" x="101.188" y="101.188"><path d="M 20.2 5.9 L 21 5.1 C 19.6 3.7 17.8 3 16 3 C 14.2 3 12.4 3.7 11 5.1 L 11.8 5.9 C 13 4.8 14.5 4.2 16 4.2 C 17.5 4.2 19 4.8 20.2 5.9 Z M 19.3 6.7 C 18.4 5.8 17.2 5.3 16 5.3 C 14.8 5.3 13.6 5.8 12.7 6.7 L 13.5 7.5 C 14.2 6.8 15.1 6.5 16 6.5 C 16.9 6.5 17.8 6.8 18.5 7.5 L 19.3 6.7 Z M 19 13 H 17 V 9 H 15 V 13 H 5 A 2 2 0 0 0 3 15 V 19 A 2 2 0 0 0 5 21 H 19 A 2 2 0 0 0 21 19 V 15 A 2 2 0 0 0 19 13 Z M 8 18 H 6 V 16 H 8 V 18 Z M 11.5 18 H 9.5 V 16 H 11.5 V 18 Z M 15 18 H 13 V 16 H 15 V 18 Z" style="fill: url(&quot;#gradient-3407515790&quot;); stroke-width: 1.152px; stroke: url(&quot;#gradient-3313264094&quot;); stroke-linecap: round; stroke-linejoin: round;" /><path d="M 20.2 5.9 L 21 5.1 C 19.6 3.7 17.8 3 16 3 C 14.2 3 12.4 3.7 11 5.1 L 11.8 5.9 C 13 4.8 14.5 4.2 16 4.2 C 17.5 4.2 19 4.8 20.2 5.9 Z M 19.3 6.7 C 18.4 5.8 17.2 5.3 16 5.3 C 14.8 5.3 13.6 5.8 12.7 6.7 L 13.5 7.5 C 14.2 6.8 15.1 6.5 16 6.5 C 16.9 6.5 17.8 6.8 18.5 7.5 L 19.3 6.7 Z M 19 13 H 17 V 9 H 15 V 13 H 5 A 2 2 0 0 0 3 15 V 19 A 2 2 0 0 0 5 21 H 19 A 2 2 0 0 0 21 19 V 15 A 2 2 0 0 0 19 13 Z M 8 18 H 6 V 16 H 8 V 18 Z M 11.5 18 H 9.5 V 16 H 11.5 V 18 Z M 15 18 H 13 V 16 H 15 V 18 Z" style="fill: url(&quot;#gradient-3407515790&quot;);" /></svg></svg>