<svg xmlns="http://www.w3.org/2000/svg" height="400" viewBox="-4.8 -4.8 409.6 409.6" width="400"><linearGradient gradientUnits="userSpaceOnUse" id="gradient-408777984" x1="72.78396487514294" x2="424.21603512485706" y1="73.17937250821942" y2="426.5206396988118"><stop offset="0%" stop-color="hsl(29.12,97.37%,64.18%)" /><stop offset="10%" stop-color="hsl(31.62,90.18%,61.68%)" /><stop offset="25%" stop-color="hsl(35,80.08%,57.48%)" /><stop offset="37%" stop-color="hsl(35.33,84.18%,58.35%)" /><stop offset="50%" stop-color="hsl(35.63,88.46%,59.23%)" /><stop offset="5.01%" stop-color="hsl(34.92,82.03%,54.62%)" /><stop offset="83%" stop-color="hsl(24.22,91.87%,61.41%)" /><stop offset="100%" stop-color="hsl(14.06,98.22%,64.73%)" /></linearGradient><linearGradient gradientUnits="userSpaceOnUse" id="gradient-3357778686" x1="72.78396487514294" x2="424.21603512485706" y1="73.17937250821942" y2="426.5206396988118"><stop offset="0%" stop-color="hsl(34.12,6.24%,57.25%)" /><stop offset="50%" stop-color="hsl(4.71,3.93%,35.92%)" /><stop offset="5.01%" stop-color="hsl(329.71,16.67%,3.76%)" /><stop offset="100%" stop-color="hsl(164.71,11.11%,2.82%)" /></linearGradient><radialGradient gradientUnits="userSpaceOnUse" id="gradient-3379911865" r="248.5"><stop offset="0%" stop-color="hsla(240,96.15%,20.39%,0)" /><stop offset="100%" stop-color="hsla(240,96.15%,20.39%,0)" /></radialGradient><linearGradient gradientUnits="userSpaceOnUse" id="gradient-2461541998" x1="72.78396487514294" x2="424.21603512485706" y1="73.17937250821942" y2="426.5206396988118"><stop offset="0%" stop-color="hsl(4.41,14.96%,76.39%)" /><stop offset="50%" stop-color="hsl(335,4.81%,55.18%)" /><stop offset="5.01%" stop-color="hsl(300,16.54%,20.93%)" /><stop offset="100%" stop-color="hsl(135,11.03%,20.84%)" /></linearGradient><linearGradient gradientUnits="userSpaceOnUse" id="gradient-3407515790" x1="3.5147186257614305" x2="20.48528137423857" y1="3.5147186257614287" y2="20.485281374238568"><stop offset="0%" stop-color="hsl(49.41,16.67%,51.9%)" /><stop offset="50%" stop-color="hsl(20,14.74%,32.54%)" /><stop offset="5.01%" stop-color="hsl(345,27.05%,3.46%)" /><stop offset="100%" stop-color="hsl(180,21.72%,2.58%)" /></linearGradient><linearGradient gradientUnits="userSpaceOnUse" id="gradient-3313264094" x1="3.5147186257614305" x2="20.48528137423857" y1="3.5147186257614287" y2="20.485281374238568"><stop offset="0%" stop-color="hsl(0,0%,98.83%)" /><stop offset="10%" stop-color="hsl(0,0%,95.31%)" /><stop offset="25%" stop-color="hsl(0,0%,89.45%)" /><stop offset="37%" stop-color="hsl(0,0%,91.8%)" /><stop offset="50%" stop-color="hsl(0,0%,94.14%)" /><stop offset="5.01%" stop-color="hsl(0,0%,89.84%)" /><stop offset="83%" stop-color="hsl(0,0%,96.09%)" /><stop offset="100%" stop-color="hsl(0,0%,99.22%)" /></linearGradient><metadata>{"content":{"iconName":"responsive","shapeName":"shape-9"},"style":{"iconFillStyle":{"baseColor":"rgb(102,102,41)","gradientDef":"https://colorzilla.com/gradient-editor/#aebcbf+0,6e7774+50,0a0e0a+5.01,0a0809+100","gradientZoom":0.8,"options":{"angle":135,"type":"linear"},"strokeWidth":1},"iconScale":1.55,"iconStrokeStyle":{"baseColor":"rgb(128,128,128)","gradientDef":"https://colorzilla.com/gradient-editor/#b8e1fc+0,a9d2f3+10,90bae4+25,90bcea+37,90bff0+50,6ba8e5+5.01,a2daf5+83,bdf3fd+100","gradientZoom":1,"options":{"angle":135,"type":"linear"},"strokeWidth":1.2},"shapeInnerFillStyle":{"baseColor":"rgb(26,26,51)","gradientDef":"FF0000+0,FF0000+100&amp;0+0,0+100","gradientZoom":1,"options":{"angle":0,"type":"radial"},"strokeWidth":1},"shapeInnerStrokeStyle":{"baseColor":"rgb(153,96,77)","gradientDef":"https://colorzilla.com/gradient-editor/#aebcbf+0,6e7774+50,0a0e0a+5.01,0a0809+100","gradientZoom":1,"options":{"angle":135,"type":"linear"},"strokeWidth":0},"shapeOuterFillStyle":{"baseColor":"rgb(153,92,31)","gradientDef":"https://colorzilla.com/gradient-editor/#b8e1fc+0,a9d2f3+10,90bae4+25,90bcea+37,90bff0+50,6ba8e5+5.01,a2daf5+83,bdf3fd+100","gradientZoom":1,"options":{"angle":135,"type":"linear"},"strokeWidth":1},"shapeOuterStrokeStyle":{"baseColor":"rgb(102,89,51)","gradientDef":"https://colorzilla.com/gradient-editor/#aebcbf+0,6e7774+50,0a0e0a+5.01,0a0809+100","gradientZoom":1,"options":{"angle":135,"type":"linear"},"strokeWidth":0.6}}}</metadata><svg height="400" style="overflow: visible;" viewBox="0 0 497 499.7" width="400" x="0" y="0"><path d="M.1 242.2c-.1 5 0 9.9 0 14.8 12.2 8.9 19.6 24.8 20.2 43.5.4 13.1-2.2 25.3-7.9 34.5 0 0 0 .1-.1.2 0 0 3.8 15.4 16.2 19.3v.1c0-.2 13.5-19.3 56.8 4.9 24.8 13.8 55 22.5 82.9 16.1 20.4 15 48.3 24.5 79.5 24.7h1c31.2-.2 59.1-9.7 79.5-24.7 27.8 6.4 58.1-2.3 82.8-16.1 43.3-24.2 56.8-5.1 56.8-4.9v-.1c12.5-3.9 16.2-19.3 16.2-19.3v-.2c-5.7-9.2-8.3-21.4-7.8-34.5.7-18.7 8-34.5 20.2-43.5v-14.8c-12.2-8.9-19.6-24.8-20.2-43.5-.4-13.1 2.1-25.3 7.8-34.5v-.1s-3.7-15.4-16.2-19.3v-.1c0 .2-13.5 19.3-56.8-4.9-24.8-13.8-55-22.5-82.8-16.2-20.3-15-49.1-24.4-80.3-24.6h-.1c-31.2.2-59.1 9.7-79.5 24.7-27.8-6.4-58.1 2.3-82.9 16.2-43.2 24.2-56.8 5.1-56.8 4.9v.1c-12.5 3.9-16.2 19.3-16.2 19.3s0 .1.1.1c5.7 9.2 8.3 21.4 7.9 34.5-.8 18.6-8.2 34.5-20.3 43.4z" fill="#9fa0a4" style="fill: url(&quot;#gradient-408777984&quot;); stroke-width: 11.928px; stroke: url(&quot;#gradient-3357778686&quot;); stroke-linecap: round; stroke-linejoin: round;" /><path d="M247.9 342.7c-17.5-.1-34.1-5.1-45.6-13.5L181 313.6l-25.7 5.9c-2 .5-4.2.7-6.6.7-10 0-22.8-4-35.4-10.9-12.2-6.8-24.2-11.9-35.7-15.2-1.1-16-5-31.1-11.4-44.5 6.4-13.3 10.3-28.3 11.5-44.2 11.6-3.3 23.6-8.3 35.8-15.2 12.5-7 25.3-11 35.3-11 2.4 0 4.5.2 6.5.7l25.8 5.9 21.3-15.7c11.5-8.4 28-13.3 45.4-13.5 17.8.2 35 5.1 46.1 13.3l21.2 15.7 25.7-5.8c1.9-.4 4.1-.7 6.5-.7 10 0 22.9 4 35.5 11 12.3 6.9 24.3 12 36 15.2 1.1 16 5 31 11.4 44.4-6.4 13.4-10.3 28.4-11.4 44.3-11.6 3.3-23.7 8.3-36 15.2-12.4 6.9-25.3 10.9-35.3 10.9-2.4 0-4.6-.2-6.5-.7l-25.8-5.9-21.3 15.7c-11.5 8.4-28.1 13.4-45.6 13.5h-.4z" fill="none" stroke="#fff" stroke-miterlimit="10" stroke-width="18" style="fill: url(&quot;#gradient-3379911865&quot;); stroke-width: 0px; stroke: url(&quot;#gradient-2461541998&quot;); stroke-linecap: round; stroke-linejoin: miter;" /></svg><svg height="162.75" id="mdi-responsive" style="overflow: visible;" version="1.1" viewBox="0 0 24 24" width="162.75" x="118.625" y="113.425"><path d="M 4 6 V 16 H 9 V 12 A 2 2 0 0 1 11 10 H 16 A 2 2 0 0 1 18 12 V 16 H 20 V 6 H 4 Z M 0 20 V 18 H 4 A 2 2 0 0 1 2 16 V 6 A 2 2 0 0 1 4 4 H 20 A 2 2 0 0 1 22 6 V 16 A 2 2 0 0 1 20 18 H 24 V 20 H 18 V 20 C 18 21.11 17.1 22 16 22 H 11 A 2 2 0 0 1 9 20 H 9 L 0 20 Z M 11.5 20 A 0.5 0.5 0 0 0 11 20.5 A 0.5 0.5 0 0 0 11.5 21 A 0.5 0.5 0 0 0 12 20.5 A 0.5 0.5 0 0 0 11.5 20 Z M 15.5 20 A 0.5 0.5 0 0 0 15 20.5 A 0.5 0.5 0 0 0 15.5 21 A 0.5 0.5 0 0 0 16 20.5 A 0.5 0.5 0 0 0 15.5 20 Z M 13 20 V 21 H 14 V 20 H 13 Z M 11 12 V 19 H 16 V 12 H 11 Z" style="fill: url(&quot;#gradient-3407515790&quot;); stroke-width: 1.152px; stroke: url(&quot;#gradient-3313264094&quot;); stroke-linecap: round; stroke-linejoin: round;" /><path d="M 4 6 V 16 H 9 V 12 A 2 2 0 0 1 11 10 H 16 A 2 2 0 0 1 18 12 V 16 H 20 V 6 H 4 Z M 0 20 V 18 H 4 A 2 2 0 0 1 2 16 V 6 A 2 2 0 0 1 4 4 H 20 A 2 2 0 0 1 22 6 V 16 A 2 2 0 0 1 20 18 H 24 V 20 H 18 V 20 C 18 21.11 17.1 22 16 22 H 11 A 2 2 0 0 1 9 20 H 9 L 0 20 Z M 11.5 20 A 0.5 0.5 0 0 0 11 20.5 A 0.5 0.5 0 0 0 11.5 21 A 0.5 0.5 0 0 0 12 20.5 A 0.5 0.5 0 0 0 11.5 20 Z M 15.5 20 A 0.5 0.5 0 0 0 15 20.5 A 0.5 0.5 0 0 0 15.5 21 A 0.5 0.5 0 0 0 16 20.5 A 0.5 0.5 0 0 0 15.5 20 Z M 13 20 V 21 H 14 V 20 H 13 Z M 11 12 V 19 H 16 V 12 H 11 Z" style="fill: url(&quot;#gradient-3407515790&quot;);" /></svg></svg>